<mxfile host="app.diagrams.net" modified="2023-05-09T19:55:43.128Z" agent="Mozilla/5.0 (X11; Ubuntu; Linux x86_64; rv:109.0) Gecko/20100101 Firefox/112.0" etag="RNmojW6Ifu2h97qUie-m" version="21.2.2" type="device">
  <diagram name="Page-1" id="13e1069c-82ec-6db2-03f1-153e76fe0fe0">
    <mxGraphModel dx="989" dy="528" grid="1" gridSize="10" guides="1" tooltips="1" connect="1" arrows="1" fold="1" page="1" pageScale="1" pageWidth="1100" pageHeight="850" background="none" math="0" shadow="0">
      <root>
        <mxCell id="0" />
        <mxCell id="1" parent="0" />
        <mxCell id="7baba1c4bc27f4b0-2" value="Webbrowser" style="shape=umlLifeline;perimeter=lifelinePerimeter;whiteSpace=wrap;html=1;container=1;collapsible=0;recursiveResize=0;outlineConnect=0;rounded=1;shadow=0;comic=0;labelBackgroundColor=none;strokeWidth=1;fontFamily=Helvetica;fontSize=12;align=center;fillColor=#dae8fc;strokeColor=#6c8ebf;" parent="1" vertex="1">
          <mxGeometry x="120" y="80" width="100" height="630" as="geometry" />
        </mxCell>
        <mxCell id="7baba1c4bc27f4b0-10" value="" style="html=1;points=[];perimeter=orthogonalPerimeter;rounded=0;shadow=0;comic=0;labelBackgroundColor=none;strokeWidth=1;fontFamily=Helvetica;fontSize=11;align=center;" parent="7baba1c4bc27f4b0-2" vertex="1">
          <mxGeometry x="45" y="70" width="10" height="550" as="geometry" />
        </mxCell>
        <mxCell id="7baba1c4bc27f4b0-3" value="Backend" style="shape=umlLifeline;perimeter=lifelinePerimeter;whiteSpace=wrap;html=1;container=1;collapsible=0;recursiveResize=0;outlineConnect=0;rounded=1;shadow=0;comic=0;labelBackgroundColor=none;strokeWidth=1;fontFamily=Helvetica;fontSize=12;align=center;" parent="1" vertex="1">
          <mxGeometry x="460" y="80" width="100" height="630" as="geometry" />
        </mxCell>
        <mxCell id="7baba1c4bc27f4b0-13" value="" style="html=1;points=[];perimeter=orthogonalPerimeter;rounded=0;shadow=0;comic=0;labelBackgroundColor=none;strokeWidth=1;fontFamily=Helvetica;fontSize=11;align=center;" parent="7baba1c4bc27f4b0-3" vertex="1">
          <mxGeometry x="45" y="90" width="10" height="110" as="geometry" />
        </mxCell>
        <mxCell id="CxmVq-tV4BPG6eTBkBAs-3" value="" style="html=1;points=[];perimeter=orthogonalPerimeter;rounded=0;shadow=0;comic=0;labelBackgroundColor=none;strokeWidth=1;fontFamily=Helvetica;fontSize=11;align=center;" vertex="1" parent="7baba1c4bc27f4b0-3">
          <mxGeometry x="45" y="550" width="10" height="40" as="geometry" />
        </mxCell>
        <mxCell id="7baba1c4bc27f4b0-4" value="Stripe" style="shape=umlLifeline;perimeter=lifelinePerimeter;whiteSpace=wrap;html=1;container=1;collapsible=0;recursiveResize=0;outlineConnect=0;rounded=1;shadow=0;comic=0;labelBackgroundColor=none;strokeWidth=1;fontFamily=Helvetica;fontSize=12;align=center;fillColor=#e1d5e7;strokeColor=#9673a6;" parent="1" vertex="1">
          <mxGeometry x="660" y="80" width="100" height="630" as="geometry" />
        </mxCell>
        <mxCell id="PZC5WgOUi7qFHXDx_M8e-4" value="" style="html=1;points=[];perimeter=orthogonalPerimeter;rounded=0;shadow=0;comic=0;labelBackgroundColor=none;strokeWidth=1;fontFamily=Helvetica;fontSize=11;align=center;" parent="7baba1c4bc27f4b0-4" vertex="1">
          <mxGeometry x="45" y="120" width="10" height="50" as="geometry" />
        </mxCell>
        <mxCell id="7baba1c4bc27f4b0-16" value="" style="html=1;points=[];perimeter=orthogonalPerimeter;rounded=0;shadow=0;comic=0;labelBackgroundColor=none;strokeWidth=1;fontFamily=Helvetica;fontSize=11;align=center;" parent="7baba1c4bc27f4b0-4" vertex="1">
          <mxGeometry x="45" y="240" width="10" height="100" as="geometry" />
        </mxCell>
        <mxCell id="CxmVq-tV4BPG6eTBkBAs-13" value="" style="html=1;points=[];perimeter=orthogonalPerimeter;rounded=0;shadow=0;comic=0;labelBackgroundColor=none;strokeWidth=1;fontFamily=Helvetica;fontSize=11;align=center;" vertex="1" parent="7baba1c4bc27f4b0-4">
          <mxGeometry x="45" y="430" width="10" height="160" as="geometry" />
        </mxCell>
        <mxCell id="7baba1c4bc27f4b0-8" value="Frontend" style="shape=umlLifeline;perimeter=lifelinePerimeter;whiteSpace=wrap;html=1;container=1;collapsible=0;recursiveResize=0;outlineConnect=0;rounded=1;shadow=0;comic=0;labelBackgroundColor=none;strokeWidth=1;fontFamily=Helvetica;fontSize=12;align=center;" parent="1" vertex="1">
          <mxGeometry x="320" y="80" width="100" height="630" as="geometry" />
        </mxCell>
        <mxCell id="7baba1c4bc27f4b0-9" value="" style="html=1;points=[];perimeter=orthogonalPerimeter;rounded=0;shadow=0;comic=0;labelBackgroundColor=none;strokeWidth=1;fontFamily=Helvetica;fontSize=11;align=center;" parent="7baba1c4bc27f4b0-8" vertex="1">
          <mxGeometry x="45" y="529.4300000000001" width="10" height="60" as="geometry" />
        </mxCell>
        <mxCell id="7baba1c4bc27f4b0-17" value="" style="html=1;verticalAlign=bottom;endArrow=classic;labelBackgroundColor=none;fontFamily=Helvetica;fontSize=11;edgeStyle=elbowEdgeStyle;elbow=vertical;endFill=1;" parent="1" source="7baba1c4bc27f4b0-13" target="7baba1c4bc27f4b0-10" edge="1">
          <mxGeometry relative="1" as="geometry">
            <mxPoint x="510" y="220" as="sourcePoint" />
            <Array as="points">
              <mxPoint x="430" y="280" />
              <mxPoint x="350" y="290" />
              <mxPoint x="460" y="220" />
            </Array>
          </mxGeometry>
        </mxCell>
        <mxCell id="PZC5WgOUi7qFHXDx_M8e-1" value="redirect to checkout session [sessionUrl]" style="edgeLabel;html=1;align=center;verticalAlign=middle;resizable=0;points=[];fontFamily=Helvetica;fontSize=11;" parent="7baba1c4bc27f4b0-17" vertex="1" connectable="0">
          <mxGeometry y="4" relative="1" as="geometry">
            <mxPoint x="-50" y="-14" as="offset" />
          </mxGeometry>
        </mxCell>
        <mxCell id="7baba1c4bc27f4b0-30" value="&lt;div style=&quot;font-size: 11px;&quot;&gt;&lt;font style=&quot;font-size: 11px;&quot;&gt;redirect to checkout completed&lt;br&gt;&lt;/font&gt;&lt;/div&gt;&lt;div style=&quot;font-size: 11px;&quot;&gt;&lt;font style=&quot;font-size: 11px;&quot;&gt;[success &amp;amp; sessionId / cancel]&lt;/font&gt;&lt;/div&gt;" style="html=1;verticalAlign=bottom;endArrow=classic;labelBackgroundColor=none;fontFamily=Helvetica;fontSize=11;edgeStyle=elbowEdgeStyle;elbow=vertical;endFill=1;" parent="1" edge="1">
          <mxGeometry x="-0.6415" relative="1" as="geometry">
            <mxPoint x="175" y="570" as="targetPoint" />
            <Array as="points">
              <mxPoint x="460" y="570" />
              <mxPoint x="520" y="570" />
              <mxPoint x="450" y="560" />
              <mxPoint x="570" y="720" />
            </Array>
            <mxPoint x="704.9999999999998" y="570" as="sourcePoint" />
            <mxPoint as="offset" />
          </mxGeometry>
        </mxCell>
        <mxCell id="7baba1c4bc27f4b0-14" value="request &lt;font style=&quot;font-size: 11px;&quot;&gt;checkout&lt;/font&gt; session [priceId]" style="html=1;verticalAlign=bottom;endArrow=classic;entryX=0;entryY=0;labelBackgroundColor=none;fontFamily=Helvetica;fontSize=11;edgeStyle=elbowEdgeStyle;elbow=vertical;endFill=1;" parent="1" source="7baba1c4bc27f4b0-10" target="7baba1c4bc27f4b0-13" edge="1">
          <mxGeometry x="-0.4242" relative="1" as="geometry">
            <mxPoint x="370" y="200" as="sourcePoint" />
            <Array as="points">
              <mxPoint x="260" y="170" />
            </Array>
            <mxPoint as="offset" />
          </mxGeometry>
        </mxCell>
        <mxCell id="PZC5WgOUi7qFHXDx_M8e-2" value="" style="endArrow=classic;html=1;rounded=0;fontFamily=Helvetica;fontSize=11;" parent="1" target="CxmVq-tV4BPG6eTBkBAs-3" edge="1">
          <mxGeometry width="50" height="50" relative="1" as="geometry">
            <mxPoint x="704.9999999999998" y="630" as="sourcePoint" />
            <mxPoint x="570" y="490" as="targetPoint" />
            <Array as="points">
              <mxPoint x="570" y="630" />
            </Array>
          </mxGeometry>
        </mxCell>
        <mxCell id="CxmVq-tV4BPG6eTBkBAs-2" value="&lt;div&gt;send event &lt;br&gt;&lt;/div&gt;&lt;div&gt;checkout.session.completed&lt;/div&gt;&amp;nbsp;[session]" style="edgeLabel;html=1;align=center;verticalAlign=middle;resizable=0;points=[];labelBackgroundColor=none;fontFamily=Helvetica;fontSize=11;" vertex="1" connectable="0" parent="PZC5WgOUi7qFHXDx_M8e-2">
          <mxGeometry x="0.2164" y="-1" relative="1" as="geometry">
            <mxPoint x="18" y="-19" as="offset" />
          </mxGeometry>
        </mxCell>
        <mxCell id="PZC5WgOUi7qFHXDx_M8e-5" value="" style="endArrow=classic;html=1;rounded=0;fontFamily=Helvetica;fontSize=11;" parent="1" source="7baba1c4bc27f4b0-13" target="PZC5WgOUi7qFHXDx_M8e-4" edge="1">
          <mxGeometry width="50" height="50" relative="1" as="geometry">
            <mxPoint x="445" y="200" as="sourcePoint" />
            <mxPoint x="585" y="200" as="targetPoint" />
            <Array as="points">
              <mxPoint x="525.5" y="200" />
            </Array>
          </mxGeometry>
        </mxCell>
        <mxCell id="PZC5WgOUi7qFHXDx_M8e-6" value="create checkout session [DiscordId]" style="edgeLabel;html=1;align=center;verticalAlign=middle;resizable=0;points=[];fontFamily=Helvetica;fontSize=11;" parent="PZC5WgOUi7qFHXDx_M8e-5" vertex="1" connectable="0">
          <mxGeometry x="0.3357" y="2" relative="1" as="geometry">
            <mxPoint x="-22" y="-8" as="offset" />
          </mxGeometry>
        </mxCell>
        <mxCell id="PZC5WgOUi7qFHXDx_M8e-7" value="" style="endArrow=classic;html=1;rounded=0;fontFamily=Helvetica;fontSize=11;" parent="1" source="7baba1c4bc27f4b0-4" target="7baba1c4bc27f4b0-13" edge="1">
          <mxGeometry width="50" height="50" relative="1" as="geometry">
            <mxPoint x="520" y="420" as="sourcePoint" />
            <mxPoint x="570" y="370" as="targetPoint" />
            <Array as="points">
              <mxPoint x="560" y="250" />
            </Array>
          </mxGeometry>
        </mxCell>
        <mxCell id="PZC5WgOUi7qFHXDx_M8e-8" value="return [checkoutSession]" style="edgeLabel;html=1;align=center;verticalAlign=middle;resizable=0;points=[];fontFamily=Helvetica;fontSize=11;" parent="PZC5WgOUi7qFHXDx_M8e-7" vertex="1" connectable="0">
          <mxGeometry x="-0.3643" y="2" relative="1" as="geometry">
            <mxPoint x="-24" y="8" as="offset" />
          </mxGeometry>
        </mxCell>
        <mxCell id="PZC5WgOUi7qFHXDx_M8e-9" value="" style="endArrow=classic;html=1;rounded=0;fontFamily=Helvetica;fontSize=11;" parent="1" source="7baba1c4bc27f4b0-10" target="7baba1c4bc27f4b0-16" edge="1">
          <mxGeometry width="50" height="50" relative="1" as="geometry">
            <mxPoint x="520" y="420" as="sourcePoint" />
            <mxPoint x="570" y="370" as="targetPoint" />
            <Array as="points">
              <mxPoint x="500" y="320" />
            </Array>
          </mxGeometry>
        </mxCell>
        <mxCell id="PZC5WgOUi7qFHXDx_M8e-10" value="request checkout session [sessionUrl]" style="edgeLabel;html=1;align=center;verticalAlign=middle;resizable=0;points=[];labelBackgroundColor=none;fontFamily=Helvetica;fontSize=11;" parent="PZC5WgOUi7qFHXDx_M8e-9" vertex="1" connectable="0">
          <mxGeometry x="0.4967" relative="1" as="geometry">
            <mxPoint x="-284" y="-10" as="offset" />
          </mxGeometry>
        </mxCell>
        <mxCell id="CxmVq-tV4BPG6eTBkBAs-4" value="return checkout completed page" style="html=1;verticalAlign=bottom;endArrow=classic;labelBackgroundColor=none;fontFamily=Helvetica;fontSize=11;edgeStyle=elbowEdgeStyle;elbow=vertical;endFill=1;" edge="1" parent="1" source="7baba1c4bc27f4b0-9">
          <mxGeometry relative="1" as="geometry">
            <mxPoint x="175" y="669.43" as="targetPoint" />
            <Array as="points">
              <mxPoint x="240" y="669.43" />
              <mxPoint x="320" y="639.43" />
              <mxPoint x="460" y="549.4300000000001" />
              <mxPoint x="580" y="709.43" />
            </Array>
            <mxPoint x="715" y="559.4300000000001" as="sourcePoint" />
            <mxPoint as="offset" />
          </mxGeometry>
        </mxCell>
        <mxCell id="CxmVq-tV4BPG6eTBkBAs-5" value="" style="endArrow=classic;html=1;rounded=0;fontFamily=Helvetica;fontSize=11;" edge="1" parent="1" target="7baba1c4bc27f4b0-9">
          <mxGeometry width="50" height="50" relative="1" as="geometry">
            <mxPoint x="175" y="609.43" as="sourcePoint" />
            <mxPoint x="715" y="429.43" as="targetPoint" />
            <Array as="points">
              <mxPoint x="270" y="609.43" />
            </Array>
          </mxGeometry>
        </mxCell>
        <mxCell id="CxmVq-tV4BPG6eTBkBAs-6" value="request checkout completed url" style="edgeLabel;html=1;align=center;verticalAlign=middle;resizable=0;points=[];labelBackgroundColor=none;fontFamily=Helvetica;fontSize=11;" vertex="1" connectable="0" parent="CxmVq-tV4BPG6eTBkBAs-5">
          <mxGeometry x="0.4967" relative="1" as="geometry">
            <mxPoint x="-47" y="-10" as="offset" />
          </mxGeometry>
        </mxCell>
        <mxCell id="CxmVq-tV4BPG6eTBkBAs-7" value="" style="endArrow=classic;html=1;rounded=0;fontFamily=Helvetica;fontSize=11;" edge="1" parent="1" source="CxmVq-tV4BPG6eTBkBAs-3">
          <mxGeometry width="50" height="50" relative="1" as="geometry">
            <mxPoint x="510" y="670" as="sourcePoint" />
            <mxPoint x="704.9999999999998" y="670" as="targetPoint" />
            <Array as="points">
              <mxPoint x="605" y="670" />
            </Array>
          </mxGeometry>
        </mxCell>
        <mxCell id="CxmVq-tV4BPG6eTBkBAs-8" value="return [Ok / notOk]" style="edgeLabel;html=1;align=center;verticalAlign=middle;resizable=0;points=[];labelBackgroundColor=none;fontFamily=Helvetica;fontSize=11;" vertex="1" connectable="0" parent="CxmVq-tV4BPG6eTBkBAs-7">
          <mxGeometry x="0.4967" relative="1" as="geometry">
            <mxPoint x="-47" y="-10" as="offset" />
          </mxGeometry>
        </mxCell>
        <mxCell id="CxmVq-tV4BPG6eTBkBAs-9" value="&lt;div style=&quot;font-size: 10px;&quot;&gt;Note:&lt;/div&gt;&lt;div style=&quot;font-size: 10px;&quot;&gt;Theoretically could also redirect to Backend and then redirect to Frontend but not needed here&lt;br style=&quot;font-size: 10px;&quot;&gt;&lt;/div&gt;" style="shape=note;size=20;whiteSpace=wrap;html=1;fontSize=10;" vertex="1" parent="1">
          <mxGeometry x="740" y="440" width="90" height="110" as="geometry" />
        </mxCell>
        <mxCell id="CxmVq-tV4BPG6eTBkBAs-10" value="" style="endArrow=none;dashed=1;html=1;rounded=0;" edge="1" parent="1" source="CxmVq-tV4BPG6eTBkBAs-9">
          <mxGeometry width="50" height="50" relative="1" as="geometry">
            <mxPoint x="420" y="550" as="sourcePoint" />
            <mxPoint x="670" y="540" as="targetPoint" />
          </mxGeometry>
        </mxCell>
        <mxCell id="CxmVq-tV4BPG6eTBkBAs-11" value="&lt;div style=&quot;font-size: 10px;&quot;&gt;Note:&lt;/div&gt;&lt;div style=&quot;font-size: 10px;&quot;&gt;Customer fills out checkout form&lt;br&gt;&lt;/div&gt;" style="shape=note;size=20;whiteSpace=wrap;html=1;fontSize=10;" vertex="1" parent="1">
          <mxGeometry x="50" y="430" width="90" height="60" as="geometry" />
        </mxCell>
        <mxCell id="CxmVq-tV4BPG6eTBkBAs-12" value="" style="endArrow=none;dashed=1;html=1;rounded=0;" edge="1" parent="1" source="CxmVq-tV4BPG6eTBkBAs-11" target="7baba1c4bc27f4b0-10">
          <mxGeometry width="50" height="50" relative="1" as="geometry">
            <mxPoint x="-295" y="360" as="sourcePoint" />
            <mxPoint x="-2.2737367544323206e-13" y="380" as="targetPoint" />
          </mxGeometry>
        </mxCell>
        <mxCell id="CxmVq-tV4BPG6eTBkBAs-14" value="return checkout page" style="html=1;verticalAlign=bottom;endArrow=classic;labelBackgroundColor=none;fontFamily=Helvetica;fontSize=11;edgeStyle=elbowEdgeStyle;elbow=vertical;endFill=1;" edge="1" parent="1" source="7baba1c4bc27f4b0-16" target="7baba1c4bc27f4b0-10">
          <mxGeometry x="-0.6415" relative="1" as="geometry">
            <mxPoint x="180" y="420" as="targetPoint" />
            <Array as="points">
              <mxPoint x="465" y="420" />
              <mxPoint x="525" y="420" />
              <mxPoint x="455" y="410" />
              <mxPoint x="575" y="570" />
            </Array>
            <mxPoint x="709.9999999999998" y="420" as="sourcePoint" />
            <mxPoint as="offset" />
          </mxGeometry>
        </mxCell>
        <mxCell id="CxmVq-tV4BPG6eTBkBAs-15" value="" style="endArrow=classic;html=1;rounded=0;fontFamily=Helvetica;fontSize=11;" edge="1" parent="1" source="7baba1c4bc27f4b0-10" target="CxmVq-tV4BPG6eTBkBAs-13">
          <mxGeometry width="50" height="50" relative="1" as="geometry">
            <mxPoint x="180" y="510" as="sourcePoint" />
            <mxPoint x="710" y="510" as="targetPoint" />
            <Array as="points">
              <mxPoint x="505" y="510" />
            </Array>
          </mxGeometry>
        </mxCell>
        <mxCell id="CxmVq-tV4BPG6eTBkBAs-16" value="submit checkout page" style="edgeLabel;html=1;align=center;verticalAlign=middle;resizable=0;points=[];labelBackgroundColor=none;fontFamily=Helvetica;fontSize=11;" vertex="1" connectable="0" parent="CxmVq-tV4BPG6eTBkBAs-15">
          <mxGeometry x="0.4967" relative="1" as="geometry">
            <mxPoint x="-284" y="-10" as="offset" />
          </mxGeometry>
        </mxCell>
        <mxCell id="CxmVq-tV4BPG6eTBkBAs-17" value="&lt;div style=&quot;font-size: 10px;&quot;&gt;Note:&lt;/div&gt;&lt;div style=&quot;font-size: 10px;&quot;&gt;session contains customerId and prior passed DiscordId&lt;br&gt;&lt;/div&gt;" style="shape=note;size=20;whiteSpace=wrap;html=1;fontSize=10;" vertex="1" parent="1">
          <mxGeometry x="740" y="570" width="90" height="80" as="geometry" />
        </mxCell>
        <mxCell id="CxmVq-tV4BPG6eTBkBAs-18" value="" style="endArrow=none;dashed=1;html=1;rounded=0;" edge="1" parent="1" source="CxmVq-tV4BPG6eTBkBAs-17">
          <mxGeometry width="50" height="50" relative="1" as="geometry">
            <mxPoint x="420" y="680" as="sourcePoint" />
            <mxPoint x="640" y="620" as="targetPoint" />
          </mxGeometry>
        </mxCell>
      </root>
    </mxGraphModel>
  </diagram>
</mxfile>
